<?xml version="1.0" encoding="UTF-8" standalone="no"?>
<svg
   xmlns:dc="http://purl.org/dc/elements/1.1/"
   xmlns:cc="http://creativecommons.org/ns#"
   xmlns:rdf="http://www.w3.org/1999/02/22-rdf-syntax-ns#"
   xmlns:svg="http://www.w3.org/2000/svg"
   xmlns="http://www.w3.org/2000/svg"
   xmlns:sodipodi="http://sodipodi.sourceforge.net/DTD/sodipodi-0.dtd"
   xmlns:inkscape="http://www.inkscape.org/namespaces/inkscape"
   class="d-block"
   width="36"
   height="36"
   viewbox="0 0 612 612"
   focusable="false"
   version="1.1"
   id="svg3733"
   sodipodi:docname="bootstrap-icon.svg"
   inkscape:version="0.92.3 (2405546, 2018-03-11)">
  <metadata
     id="metadata3739">
    <rdf:RDF>
      <cc:Work
         rdf:about="">
        <dc:format>image/svg+xml</dc:format>
        <dc:type
           rdf:resource="http://purl.org/dc/dcmitype/StillImage" />
      </cc:Work>
    </rdf:RDF>
  </metadata>
  <defs
     id="defs3737" />
  <sodipodi:namedview
     pagecolor="#ffffff"
     bordercolor="#666666"
     borderopacity="1"
     objecttolerance="10"
     gridtolerance="10"
     guidetolerance="10"
     inkscape:pageopacity="0"
     inkscape:pageshadow="2"
     inkscape:window-width="1366"
     inkscape:window-height="705"
     id="namedview3735"
     showgrid="false"
     inkscape:zoom="0.32900107"
     inkscape:cx="143.77949"
     inkscape:cy="-369.00453"
     inkscape:window-x="-8"
     inkscape:window-y="-8"
     inkscape:window-maximized="1"
     inkscape:current-layer="svg3733" />
  <title
     id="title3727">Bootstrap</title>
  <path
     d="m 485.68397,44.474045 a 94.3,94.3 0 0 1 94,93.999995 v 408.00001 a 94.3,94.3 0 0 1 -94,94 H 77.683975 a 94.3,94.3 0 0 1 -94,-94 V 138.47404 a 94.3,94.3 0 0 1 94,-93.999995 H 485.68397 m 0,-8 H 77.683975 c -56.1,0 -102,45.9 -102,101.999995 v 408.00001 c 0,56.1 45.9,102 102,102 H 485.68397 c 56.1,0 102,-45.9 102,-102 V 138.47404 c 0,-56.099995 -45.9,-101.999995 -102,-101.999995 z"
     id="path3729"
     inkscape:connector-curvature="0"
     style="fill:currentColor" />
  <path
     fill="currentColor"
     d="M196.77 471.5V154.43h124.15c54.27 0 91 31.64 91 79.1 0 33-24.17 63.72-54.71 69.21v1.76c43.07 5.49 70.75 35.82 70.75 78 0 55.81-40 89-107.45 89zm39.55-180.4h63.28c46.8 0 72.29-18.68 72.29-53 0-31.42-21.53-48.78-60-48.78h-75.57zm78.22 145.46c47.68 0 72.73-19.34 72.73-56s-25.93-55.37-76.46-55.37h-74.49v111.4z"
     id="path3731" />
</svg>
